<?xml version="1.0" encoding="utf-8"?>
<!-- Generator: Adobe Illustrator 28.1.0, SVG Export Plug-In . SVG Version: 6.00 Build 0)  -->
<svg version="1.1" id="uuid-92577af2-6df5-4e65-aac2-16d4b3d8cf09"
	 xmlns="http://www.w3.org/2000/svg" xmlns:xlink="http://www.w3.org/1999/xlink" x="0px" y="0px" viewBox="0 0 493.8 64"
	 style="enable-background:new 0 0 493.8 64;" xml:space="preserve">
<style type="text/css">
	.st0{fill:url(#SVGID_1_);}
	.st1{fill:url(#SVGID_00000173119310289646275470000005315716228122509490_);}
	.st2{fill:url(#SVGID_00000060713130914630820960000016175514606033024420_);}
	.st3{fill:url(#SVGID_00000076574781220310246480000000897022067354182545_);}
	.st4{fill:url(#SVGID_00000003086351260815106690000015473373546888028847_);}
	.st5{fill:url(#SVGID_00000119105143549888417920000012317964447194989462_);}
	.st6{fill:url(#SVGID_00000150078501202646508990000009240677524144106157_);}
	.st7{fill:url(#SVGID_00000032643503070754682430000013299271917423391407_);}
	.st8{fill:url(#SVGID_00000117654940952899040420000013185769696791383977_);}
	.st9{fill:url(#SVGID_00000092452973838216219820000017642784413359743392_);}
	.st10{fill:url(#SVGID_00000031902856195686387720000011265778295545923510_);}
	.st11{fill:url(#SVGID_00000084524012221824646320000012562249559447547046_);}
	.st12{fill:url(#SVGID_00000176033982730754054230000010458596464813087912_);}
	.st13{fill:url(#SVGID_00000044174462502380452870000004151567060374071706_);}
	.st14{fill:url(#SVGID_00000183235698693524138640000012653238222991771057_);}
	.st15{fill:url(#SVGID_00000134219811095164717810000011717150980918260402_);}
	.st16{fill:url(#SVGID_00000182520670508462144500000011350400839535927457_);}
	.st17{fill:url(#SVGID_00000026150558907776945490000009963689230714333065_);}
	.st18{fill:url(#SVGID_00000119115993997290988410000004902346312304608416_);}
	.st19{fill:url(#SVGID_00000095310046507858418540000008156621949811982003_);}
	.st20{fill:url(#SVGID_00000013169138143779307620000008174641418323127979_);}
	.st21{fill:url(#SVGID_00000083058397998245520050000017656988438124973720_);}
	.st22{fill:url(#SVGID_00000175283850547007716730000010951474762353137818_);}
	.st23{fill:url(#SVGID_00000106132285632911704800000002417393167694255758_);}
	.st24{fill:url(#SVGID_00000132070224645719689200000012930545704472287664_);}
	.st25{fill:url(#SVGID_00000101082032859503765250000011642108468497714082_);}
	.st26{fill:url(#SVGID_00000133496081623756073650000011971907094865440437_);}
	.st27{fill:url(#SVGID_00000042701429268957857480000000322377999900626305_);}
	.st28{fill:url(#SVGID_00000142890959228423855420000015301511467659225747_);}
	.st29{fill:url(#SVGID_00000012462870743695255830000003568154415116353933_);}
	.st30{fill:url(#SVGID_00000090261658396683978630000009985930370294702996_);}
	.st31{fill:url(#SVGID_00000181786858156924471050000005279788584958517439_);}
	.st32{fill:url(#SVGID_00000124127208356802946210000008010454219184908422_);}
	.st33{fill:url(#SVGID_00000011746437042447451310000014691295728110661788_);}
	.st34{fill:url(#SVGID_00000034799387694732898790000001049569586275145103_);}
	.st35{fill:url(#SVGID_00000129894719331988174610000010878712826170874268_);}
	.st36{fill:url(#SVGID_00000181797227007437547750000012357205385303378071_);}
	.st37{fill:url(#SVGID_00000007412108703111150830000014466941286074225824_);}
	.st38{fill:url(#SVGID_00000038400160477908787560000004301012346265671350_);}
	.st39{fill:url(#SVGID_00000106869224821728651220000001193700459497983640_);}
	.st40{fill:url(#SVGID_00000105421212939386522360000012805852368015418024_);}
	.st41{fill:url(#SVGID_00000063609377506987880340000011056358923657084591_);}
	.st42{fill:url(#SVGID_00000114769218350999444020000004691976203802399142_);}
	.st43{fill:url(#SVGID_00000026160700540970731370000015810193315022312332_);}
	.st44{fill:url(#SVGID_00000089575914123686952240000002920098932562424723_);}
	.st45{fill:url(#SVGID_00000176024658506966519570000009158322628896951694_);}
	.st46{fill:url(#SVGID_00000178170191054556595870000012598790055571712919_);}
	.st47{fill:url(#SVGID_00000111173336406710396020000007013538058773308818_);}
	.st48{fill:url(#SVGID_00000177466974225169831420000017310646847182586041_);}
	.st49{fill:url(#SVGID_00000088811684629525766280000006045276993549919678_);}
	.st50{fill:url(#SVGID_00000115495601836796496080000012174218325523658930_);}
	.st51{fill:url(#SVGID_00000150816484438554027970000002944103726484768901_);}
	.st52{fill:url(#SVGID_00000164496187422197848020000000678120681415607438_);}
	.st53{fill:url(#SVGID_00000083792191607766682540000015247714110820352930_);}
	.st54{fill:url(#SVGID_00000029728671768303448560000004755347574873622196_);}
	.st55{fill:url(#SVGID_00000055678829596505617580000016008458411779483036_);}
	.st56{fill:url(#SVGID_00000167371243873457132540000014594418718219163298_);}
	.st57{fill:#2A41E8;}
</style>
<g>
	<linearGradient id="SVGID_1_" gradientUnits="userSpaceOnUse" x1="57.86" y1="58.055" x2="62.28" y2="58.055">
		<stop  offset="0" style="stop-color:#FFFFFF"/>
		<stop  offset="1" style="stop-color:#2A41E8"/>
	</linearGradient>
	<path class="st0" d="M61.8,58c-0.1-0.3-0.2-0.7-0.2-1.1c-0.5-0.1-0.9-0.2-1.3-0.2c-0.4-0.1-0.8-0.1-1.1-0.2s-0.8-0.1-1.3-0.2
		c0.1,0.4,0.2,0.8,0.3,1.1c0,0.2,0.1,0.4,0.1,0.5c0.8,0.6,1.7,1.2,2.6,1.8c0,0,0.1,0,0.1,0c0.4,0.1,0.8,0.1,1.3,0.2
		c-0.1-0.4-0.2-0.7-0.2-1S61.9,58.3,61.8,58L61.8,58z"/>
	
		<linearGradient id="SVGID_00000131352223136599823090000012912835811421186478_" gradientUnits="userSpaceOnUse" x1="91.64" y1="51.13" x2="96.08" y2="51.13">
		<stop  offset="0" style="stop-color:#FFFFFF"/>
		<stop  offset="1" style="stop-color:#2A41E8"/>
	</linearGradient>
	<path style="fill:url(#SVGID_00000131352223136599823090000012912835811421186478_);" d="M93.6,49.2c-0.4,0-0.9,0.1-1.4,0.2
		c-0.1,0.6-0.1,1-0.2,1.4c-0.1,0.4-0.1,0.8-0.2,1.2c-0.1,0.4-0.1,0.8-0.2,1.3c0.5-0.1,1-0.2,1.4-0.2c0.4-0.1,0.8-0.1,1.2-0.2
		s0.8-0.1,1.3-0.2c0.1-0.5,0.2-0.9,0.2-1.3c0.1-0.4,0.1-0.8,0.2-1.2c0.1-0.4,0.1-0.8,0.2-1.4c-0.5,0.1-0.9,0.1-1.3,0.2
		C94.4,49.1,94,49.2,93.6,49.2z"/>
	
		<linearGradient id="SVGID_00000058555995450155944660000003886292114591857563_" gradientUnits="userSpaceOnUse" x1="92.51" y1="42.65" x2="96.65" y2="42.65">
		<stop  offset="0" style="stop-color:#FFFFFF"/>
		<stop  offset="1" style="stop-color:#2A41E8"/>
	</linearGradient>
	<path style="fill:url(#SVGID_00000058555995450155944660000003886292114591857563_);" d="M94.1,40.4c-0.4,0-0.9,0-1.4,0.1
		c0,0.5,0,0.9,0,1.3c0,0.4,0,0.7,0,1.1c0,0.3,0,0.7-0.1,1.1c0,0.4,0,0.8-0.1,1.2c0.6,0,1-0.1,1.4-0.1c0.4,0,0.8-0.1,1.2-0.1
		c0.4,0,0.8-0.1,1.3-0.1c0-0.4,0-0.8,0.1-1.2c0-0.4,0-0.7,0-1s0-0.7,0-1s0-0.8,0-1.2c-0.5,0-0.9,0.1-1.3,0.1S94.6,40.3,94.1,40.4
		L94.1,40.4z"/>
	
		<linearGradient id="SVGID_00000052819981158520555680000004439781915531485076_" gradientUnits="userSpaceOnUse" x1="50.14" y1="49.79" x2="53.74" y2="49.79">
		<stop  offset="0" style="stop-color:#FFFFFF"/>
		<stop  offset="1" style="stop-color:#2A41E8"/>
	</linearGradient>
	<path style="fill:url(#SVGID_00000052819981158520555680000004439781915531485076_);" d="M53.3,49.6c-0.1-0.4-0.1-0.8-0.2-1.3
		c-0.4-0.1-0.8-0.2-1.1-0.2c-0.3-0.1-0.6-0.1-0.9-0.2c-0.3-0.1-0.6-0.2-1-0.3c0.1,0.5,0.1,0.9,0.2,1.3c0,0,0,0,0,0.1
		c0.5,0.9,1.1,1.8,1.8,2.7c0.2,0,0.3,0.1,0.5,0.1c0.3,0.1,0.7,0.2,1.1,0.3c-0.1-0.5-0.2-0.9-0.2-1.3S53.4,50,53.3,49.6L53.3,49.6z"
		/>
	
		<linearGradient id="SVGID_00000142133800346312421680000017997484245032354696_" gradientUnits="userSpaceOnUse" x1="46.16" y1="33.345" x2="47.55" y2="33.345">
		<stop  offset="0" style="stop-color:#FFFFFF"/>
		<stop  offset="1" style="stop-color:#2A41E8"/>
	</linearGradient>
	<path style="fill:url(#SVGID_00000142133800346312421680000017997484245032354696_);" d="M47.5,35.3c0-0.5,0-1,0-1.4v-1.2
		c0-0.4,0-0.8,0-1.4c-0.4,0-0.6,0.1-0.8,0.1c-0.2,0-0.4,0-0.5,0.1c0,0.6,0,1.2,0,1.8s0,1.2,0,1.8c0.2,0,0.3,0,0.5,0.1
		C46.9,35.2,47.2,35.3,47.5,35.3L47.5,35.3z"/>
	
		<linearGradient id="SVGID_00000159453952379098009000000010878497932372027302_" gradientUnits="userSpaceOnUse" x1="46.66" y1="25.9" x2="47.6" y2="25.9">
		<stop  offset="0" style="stop-color:#FFFFFF"/>
		<stop  offset="1" style="stop-color:#2A41E8"/>
	</linearGradient>
	<path style="fill:url(#SVGID_00000159453952379098009000000010878497932372027302_);" d="M46.7,27.8c0.2-0.1,0.5-0.1,0.8-0.2
		c0-0.5,0-1,0-1.4c0-0.4,0-0.8,0-1.2c0-0.3,0-0.6,0-1C47.2,25.2,46.9,26.5,46.7,27.8C46.7,27.8,46.7,27.8,46.7,27.8L46.7,27.8z"/>
	
		<linearGradient id="SVGID_00000151522911194429364550000004122644544273137310_" gradientUnits="userSpaceOnUse" x1="83.66" y1="33.355" x2="88.46" y2="33.355">
		<stop  offset="0" style="stop-color:#FFFFFF"/>
		<stop  offset="1" style="stop-color:#2A41E8"/>
	</linearGradient>
	<path style="fill:url(#SVGID_00000151522911194429364550000004122644544273137310_);" d="M88.5,30.9c-0.5,0-0.9,0-1.3,0
		c-0.4,0-0.7,0-1.1,0s-0.7,0-1.1,0s-0.8,0-1.3,0c0,0.5,0,0.9,0,1.3v2.3c0,0.4,0,0.8,0,1.3c0.5,0,0.9,0,1.3,0c0.4,0,0.8,0,1.1,0
		c0.4,0,0.7,0,1.1,0s0.8,0,1.3,0c0-0.5,0-0.9,0-1.3v-2.3C88.5,31.9,88.5,31.4,88.5,30.9L88.5,30.9z"/>
	
		<linearGradient id="SVGID_00000163045787684558742380000009313208862351977649_" gradientUnits="userSpaceOnUse" x1="46.65" y1="40.825" x2="47.6" y2="40.825">
		<stop  offset="0" style="stop-color:#FFFFFF"/>
		<stop  offset="1" style="stop-color:#2A41E8"/>
	</linearGradient>
	<path style="fill:url(#SVGID_00000163045787684558742380000009313208862351977649_);" d="M47.6,40.5c0-0.4,0-0.8,0-1.4
		c-0.4-0.1-0.6-0.2-0.8-0.2c0,0-0.1,0-0.1,0c0.2,1.3,0.5,2.6,1,3.8c0-0.4,0-0.7,0-1C47.6,41.3,47.6,40.9,47.6,40.5z"/>
	
		<linearGradient id="SVGID_00000032612883602447357310000015208406886504517527_" gradientUnits="userSpaceOnUse" x1="90.35" y1="58.03" x2="94.75" y2="58.03">
		<stop  offset="0" style="stop-color:#FFFFFF"/>
		<stop  offset="1" style="stop-color:#2A41E8"/>
	</linearGradient>
	<path style="fill:url(#SVGID_00000032612883602447357310000015208406886504517527_);" d="M92.4,56.7c-0.4,0.1-0.8,0.1-1.3,0.2
		c-0.1,0.4-0.2,0.8-0.2,1.1c-0.1,0.3-0.1,0.6-0.2,0.9c-0.1,0.3-0.2,0.6-0.2,1c0.5-0.1,0.9-0.1,1.3-0.2c0.1,0,0.2,0,0.2,0
		c0.3,0,0.6-0.1,0.9-0.1c0.4-0.1,0.8-0.1,1.2-0.2c0.1-0.4,0.2-0.7,0.3-1c0-0.1,0.1-0.2,0.1-0.3c0.1-0.2,0.1-0.4,0.2-0.6
		c0.1-0.3,0.2-0.7,0.3-1.1c-0.5,0.1-0.9,0.2-1.3,0.2C93.1,56.5,92.7,56.6,92.4,56.7L92.4,56.7z"/>
	
		<linearGradient id="SVGID_00000031187465775966332040000016811772765841934522_" gradientUnits="userSpaceOnUse" x1="98.87" y1="49.81" x2="102.48" y2="49.81">
		<stop  offset="0" style="stop-color:#FFFFFF"/>
		<stop  offset="1" style="stop-color:#2A41E8"/>
	</linearGradient>
	<path style="fill:url(#SVGID_00000031187465775966332040000016811772765841934522_);" d="M100.6,48c-0.3,0.1-0.7,0.2-1.1,0.2
		c-0.1,0.5-0.2,0.9-0.2,1.3c-0.1,0.4-0.1,0.8-0.2,1.2c-0.1,0.4-0.1,0.8-0.2,1.3c0.4-0.1,0.8-0.2,1.1-0.3c0.2-0.1,0.4-0.1,0.6-0.2
		c0.6-0.8,1.1-1.6,1.6-2.5c0-0.1,0-0.2,0-0.3c0.1-0.4,0.1-0.8,0.2-1.3c-0.4,0.1-0.7,0.2-1,0.3C101.2,47.9,100.9,48,100.6,48
		L100.6,48z"/>
	
		<linearGradient id="SVGID_00000016045716018475274570000013310188500703672228_" gradientUnits="userSpaceOnUse" x1="66.99" y1="62.985" x2="70.83" y2="62.985">
		<stop  offset="0" style="stop-color:#FFFFFF"/>
		<stop  offset="1" style="stop-color:#2A41E8"/>
	</linearGradient>
	<path style="fill:url(#SVGID_00000016045716018475274570000013310188500703672228_);" d="M70.6,62.5c-0.5,0-0.9,0-1.3,0
		c-0.4,0-0.8,0-1.2,0c-0.3,0-0.7,0-1.1,0c1.2,0.4,2.5,0.7,3.8,1c0,0,0-0.1,0-0.1C70.7,63.2,70.7,62.9,70.6,62.5L70.6,62.5z"/>
	
		<linearGradient id="SVGID_00000129905864012933409900000001125179435211137712_" gradientUnits="userSpaceOnUse" x1="92.51" y1="24.015" x2="96.64" y2="24.015">
		<stop  offset="0" style="stop-color:#FFFFFF"/>
		<stop  offset="1" style="stop-color:#2A41E8"/>
	</linearGradient>
	<path style="fill:url(#SVGID_00000129905864012933409900000001125179435211137712_);" d="M93.9,21.7c-0.4,0-0.9-0.1-1.4-0.1
		c0,0.5,0,0.9,0.1,1.2c0,0.4,0,0.7,0,1.1c0,0.4,0,0.7,0,1.1s0,0.8,0,1.3c0.6,0,1,0.1,1.4,0.1c0.4,0,0.8,0,1.2,0.1
		c0.4,0,0.8,0.1,1.3,0.1c0-0.5,0-0.9,0-1.2c0-0.4,0-0.7,0-1s0-0.7,0-1c0-0.4,0-0.8-0.1-1.2c-0.5-0.1-0.9-0.1-1.3-0.1
		C94.7,21.8,94.4,21.7,93.9,21.7z"/>
	
		<linearGradient id="SVGID_00000019647948456607756420000003910268030899820972_" gradientUnits="userSpaceOnUse" x1="74.38" y1="63.265" x2="78.23" y2="63.265">
		<stop  offset="0" style="stop-color:#FFFFFF"/>
		<stop  offset="1" style="stop-color:#2A41E8"/>
	</linearGradient>
	<path style="fill:url(#SVGID_00000019647948456607756420000003910268030899820972_);" d="M75.7,62.5c-0.4,0-0.8,0-1.3,0
		c0,0.4,0.1,0.6,0.1,0.8c0,0.2,0.1,0.4,0.1,0.5c0.6,0,1.2,0.1,1.8,0.1c0.6,0,1.2,0,1.7,0c0-0.2,0.1-0.3,0.1-0.5
		c0-0.2,0.1-0.5,0.1-0.8c-0.5,0-0.9,0-1.3,0L75.7,62.5L75.7,62.5z"/>
	
		<linearGradient id="SVGID_00000036246690736040047280000018032034663274999171_" gradientUnits="userSpaceOnUse" x1="81.78" y1="62.985" x2="85.73" y2="62.985">
		<stop  offset="0" style="stop-color:#FFFFFF"/>
		<stop  offset="1" style="stop-color:#2A41E8"/>
	</linearGradient>
	<path style="fill:url(#SVGID_00000036246690736040047280000018032034663274999171_);" d="M83.4,62.5c-0.4,0-0.8,0-1.3,0
		c-0.1,0.4-0.2,0.6-0.2,0.9c0,0,0,0.1,0,0.1c1.3-0.2,2.7-0.6,3.9-1c-0.4,0-0.8,0-1.2,0C84.2,62.5,83.8,62.5,83.4,62.5L83.4,62.5z"/>
	
		<linearGradient id="SVGID_00000133503785823995948500000017151291259475821218_" gradientUnits="userSpaceOnUse" x1="91.62" y1="15.57" x2="96.06" y2="15.57">
		<stop  offset="0" style="stop-color:#FFFFFF"/>
		<stop  offset="1" style="stop-color:#2A41E8"/>
	</linearGradient>
	<path style="fill:url(#SVGID_00000133503785823995948500000017151291259475821218_);" d="M93,13.5c-0.4-0.1-0.8-0.1-1.4-0.2
		c0.1,0.5,0.1,0.9,0.2,1.3c0.1,0.4,0.1,0.8,0.2,1.2c0.1,0.4,0.1,0.9,0.2,1.4c0.6,0.1,1,0.1,1.4,0.2s0.8,0.1,1.2,0.2
		c0.4,0.1,0.8,0.1,1.3,0.2c-0.1-0.5-0.1-1-0.2-1.4c-0.1-0.4-0.1-0.8-0.2-1.2c-0.1-0.4-0.1-0.8-0.2-1.3c-0.5-0.1-0.9-0.2-1.3-0.2
		S93.4,13.6,93,13.5z"/>
	
		<linearGradient id="SVGID_00000064321137893550687500000002250229680442518927_" gradientUnits="userSpaceOnUse" x1="90.33" y1="8.685" x2="94.74" y2="8.685">
		<stop  offset="0" style="stop-color:#FFFFFF"/>
		<stop  offset="1" style="stop-color:#2A41E8"/>
	</linearGradient>
	<path style="fill:url(#SVGID_00000064321137893550687500000002250229680442518927_);" d="M90.8,8.7c0.1,0.3,0.2,0.7,0.2,1.1
		c0.5,0.1,0.9,0.1,1.3,0.2c0.4,0.1,0.8,0.1,1.1,0.2s0.8,0.1,1.3,0.2c-0.1-0.4-0.2-0.8-0.3-1.1c-0.1-0.2-0.1-0.4-0.2-0.6
		c-0.8-0.6-1.6-1.2-2.5-1.7c-0.1,0-0.1,0-0.2,0c-0.4-0.1-0.8-0.1-1.3-0.2c0.1,0.4,0.2,0.7,0.2,1S90.7,8.4,90.8,8.7L90.8,8.7z"/>
	
		<linearGradient id="SVGID_00000151504066900508004710000010732806304364961423_" gradientUnits="userSpaceOnUse" x1="98.83" y1="16.915" x2="102.45" y2="16.915">
		<stop  offset="0" style="stop-color:#FFFFFF"/>
		<stop  offset="1" style="stop-color:#2A41E8"/>
	</linearGradient>
	<path style="fill:url(#SVGID_00000151504066900508004710000010732806304364961423_);" d="M99.3,17.1c0.1,0.4,0.1,0.8,0.2,1.3
		c0.4,0.1,0.8,0.2,1.1,0.2c0.3,0.1,0.6,0.1,0.9,0.2s0.6,0.2,1,0.3c-0.1-0.5-0.1-0.9-0.2-1.3c0-0.1,0-0.2,0-0.2
		c-0.5-0.9-1.1-1.7-1.7-2.5c-0.2-0.1-0.4-0.1-0.6-0.2c-0.3-0.1-0.7-0.2-1.1-0.3c0.1,0.5,0.2,0.9,0.2,1.3S99.2,16.7,99.3,17.1
		L99.3,17.1z"/>
	
		<linearGradient id="SVGID_00000000918374695273907270000003523066975313368448_" gradientUnits="userSpaceOnUse" x1="74.1" y1="3.51" x2="78.64" y2="3.51">
		<stop  offset="0" style="stop-color:#FFFFFF"/>
		<stop  offset="1" style="stop-color:#2A41E8"/>
	</linearGradient>
	<path style="fill:url(#SVGID_00000000918374695273907270000003523066975313368448_);" d="M74.5,3.4c0,0.2-0.1,0.4-0.1,0.8
		c0.5,0,0.9,0,1.3,0h1.2c0.4,0,0.8,0,1.3,0c0-0.4-0.1-0.6-0.1-0.8S78.1,3,78.1,2.9h0.6c-0.8-0.1-1.5-0.1-2.3-0.1s-1.5,0-2.3,0.1h0.5
		C74.5,3.1,74.5,3.2,74.5,3.4L74.5,3.4z"/>
	
		<linearGradient id="SVGID_00000073718795049665830930000009661440083643290519_" gradientUnits="userSpaceOnUse" x1="81.74" y1="3.765" x2="85.75" y2="3.765">
		<stop  offset="0" style="stop-color:#FFFFFF"/>
		<stop  offset="1" style="stop-color:#2A41E8"/>
	</linearGradient>
	<path style="fill:url(#SVGID_00000073718795049665830930000009661440083643290519_);" d="M82,4.2c0.5,0,0.9,0,1.3,0
		c0.4,0,0.8,0,1.2,0c0.4,0,0.8,0,1.2,0c-1.3-0.4-2.6-0.8-4-1c0,0.1,0.1,0.1,0.1,0.2C81.9,3.6,81.9,3.9,82,4.2L82,4.2z"/>
	
		<linearGradient id="SVGID_00000150104496890600930150000014048109916312036018_" gradientUnits="userSpaceOnUse" x1="105.01" y1="25.795" x2="106.05" y2="25.795">
		<stop  offset="0" style="stop-color:#FFFFFF"/>
		<stop  offset="1" style="stop-color:#2A41E8"/>
	</linearGradient>
	<path style="fill:url(#SVGID_00000150104496890600930150000014048109916312036018_);" d="M105,26.2c0,0.4,0,0.8,0,1.4
		c0.4,0.1,0.6,0.2,0.8,0.2c0.1,0,0.1,0,0.2,0.1c-0.2-1.4-0.6-2.8-1-4.1c0,0.5,0,0.9,0,1.3C105,25.4,105,25.8,105,26.2L105,26.2z"/>
	
		<linearGradient id="SVGID_00000010293076110537442240000011636129755040992403_" gradientUnits="userSpaceOnUse" x1="105.07" y1="33.38" x2="106.55" y2="33.38">
		<stop  offset="0" style="stop-color:#FFFFFF"/>
		<stop  offset="1" style="stop-color:#2A41E8"/>
	</linearGradient>
	<path style="fill:url(#SVGID_00000010293076110537442240000011636129755040992403_);" d="M106.6,33.4c0-0.8,0-1.6-0.1-2.4v0.6
		c-0.2,0-0.4-0.1-0.6-0.1s-0.4,0-0.8-0.1c0,0.5,0,1,0,1.4s0,0.8,0,1.2v1.4c0.4,0,0.6,0,0.8-0.1c0.2,0,0.4,0,0.6-0.1v0.6
		C106.5,35,106.6,34.2,106.6,33.4z"/>
	
		<linearGradient id="SVGID_00000020365833477130321230000016517807779090626971_" gradientUnits="userSpaceOnUse" x1="50.17" y1="16.9" x2="53.78" y2="16.9">
		<stop  offset="0" style="stop-color:#FFFFFF"/>
		<stop  offset="1" style="stop-color:#2A41E8"/>
	</linearGradient>
	<path style="fill:url(#SVGID_00000020365833477130321230000016517807779090626971_);" d="M52.2,15.1c-0.7,0.9-1.2,1.8-1.8,2.7
		c0,0,0,0,0,0c-0.1,0.4-0.1,0.8-0.2,1.3c0.4-0.1,0.7-0.2,1-0.3c0.3-0.1,0.6-0.1,0.9-0.2c0.3-0.1,0.7-0.1,1.1-0.2
		c0.1-0.5,0.2-0.9,0.2-1.3c0.1-0.4,0.1-0.8,0.2-1.1s0.1-0.8,0.2-1.3c-0.4,0.1-0.8,0.2-1.1,0.3C52.5,15,52.3,15,52.2,15.1L52.2,15.1z
		"/>
	
		<linearGradient id="SVGID_00000157282186112588485600000015641104399869273511_" gradientUnits="userSpaceOnUse" x1="99.94" y1="41.915" x2="102.92" y2="41.915">
		<stop  offset="0" style="stop-color:#FFFFFF"/>
		<stop  offset="1" style="stop-color:#2A41E8"/>
	</linearGradient>
	<path style="fill:url(#SVGID_00000157282186112588485600000015641104399869273511_);" d="M101.1,39.8c-0.3,0-0.6,0.1-1.1,0.1
		c0,0.4,0,0.8,0,1.2c0,0.4,0,0.7,0,1c0,0.3,0,0.7,0,1s0,0.7,0,1.2c0.4-0.1,0.8-0.1,1.1-0.2c0.3,0,0.6-0.1,0.9-0.2
		c0.3-0.1,0.6-0.1,0.9-0.2c0-0.4,0-0.8,0-1.1c0-0.3,0-0.6,0-1c0-0.3,0-0.6,0-1s0-0.7,0-1.1c-0.3,0-0.6,0.1-0.9,0.1
		S101.4,39.8,101.1,39.8L101.1,39.8z"/>
	
		<linearGradient id="SVGID_00000012448131772464664140000008236293340352254849_" gradientUnits="userSpaceOnUse" x1="100.1" y1="33.34" x2="102.95" y2="33.34">
		<stop  offset="0" style="stop-color:#FFFFFF"/>
		<stop  offset="1" style="stop-color:#2A41E8"/>
	</linearGradient>
	<path style="fill:url(#SVGID_00000012448131772464664140000008236293340352254849_);" d="M102.9,31.3c-0.3,0-0.6,0-0.9,0
		c-0.3,0-0.6,0-0.9,0c-0.3,0-0.6,0-1.1,0c0,0.4,0,0.8,0,1.2s0,0.7,0,1s0,0.7,0,1s0,0.8,0,1.2c0.4,0,0.8,0,1.1,0c0.3,0,0.6,0,0.9,0
		c0.3,0,0.6,0,0.9,0c0-0.4,0-0.8,0-1.1s0-0.7,0-1s0-0.6,0-1S102.9,31.7,102.9,31.3L102.9,31.3z"/>
	
		<linearGradient id="SVGID_00000038379360179219326470000014081688468286341021_" gradientUnits="userSpaceOnUse" x1="99.94" y1="24.76" x2="102.91" y2="24.76">
		<stop  offset="0" style="stop-color:#FFFFFF"/>
		<stop  offset="1" style="stop-color:#2A41E8"/>
	</linearGradient>
	<path style="fill:url(#SVGID_00000038379360179219326470000014081688468286341021_);" d="M101,22.6c-0.3-0.1-0.7-0.1-1.1-0.2
		c0,0.4,0,0.8,0,1.1c0,0.4,0,0.7,0,1c0,0.3,0,0.6,0,1c0,0.4,0,0.7,0,1.2c0.4,0,0.8,0.1,1.1,0.1c0.3,0,0.6,0.1,0.9,0.1
		s0.6,0.1,0.9,0.1c0-0.4,0-0.8,0-1.1c0-0.3,0-0.6,0-1c0-0.3,0-0.6,0-1c0-0.3,0-0.7,0-1.1c-0.3-0.1-0.6-0.1-0.9-0.2
		C101.6,22.7,101.3,22.7,101,22.6z"/>
	
		<linearGradient id="SVGID_00000159464238392899196480000003088517683653721790_" gradientUnits="userSpaceOnUse" x1="66.96" y1="3.785" x2="70.87" y2="3.785">
		<stop  offset="0" style="stop-color:#FFFFFF"/>
		<stop  offset="1" style="stop-color:#2A41E8"/>
	</linearGradient>
	<path style="fill:url(#SVGID_00000159464238392899196480000003088517683653721790_);" d="M68.1,4.3c0.4,0,0.8,0,1.2,0
		c0.4,0,0.8,0,1.3,0c0.1-0.4,0.2-0.6,0.2-0.8c0,0,0-0.1,0.1-0.2c-1.3,0.2-2.6,0.6-3.9,1C67.4,4.3,67.7,4.3,68.1,4.3L68.1,4.3z"/>
	
		<linearGradient id="SVGID_00000124124550076842023960000017168783377294034329_" gradientUnits="userSpaceOnUse" x1="57.9" y1="8.675" x2="62.32" y2="8.675">
		<stop  offset="0" style="stop-color:#FFFFFF"/>
		<stop  offset="1" style="stop-color:#2A41E8"/>
	</linearGradient>
	<path style="fill:url(#SVGID_00000124124550076842023960000017168783377294034329_);" d="M60.9,7.1c-0.9,0.6-1.8,1.2-2.6,1.8
		c0,0.2-0.1,0.3-0.1,0.5c-0.1,0.3-0.2,0.7-0.3,1.1c0.5-0.1,0.9-0.2,1.3-0.2c0.4-0.1,0.7-0.1,1.1-0.2s0.8-0.1,1.3-0.2
		c0.1-0.4,0.2-0.8,0.2-1.1c0.1-0.3,0.1-0.6,0.2-0.9c0.1-0.3,0.2-0.6,0.2-1C61.8,6.9,61.4,7,61,7.1C61,7.1,61,7.1,60.9,7.1L60.9,7.1z
		"/>
	
		<linearGradient id="SVGID_00000101069369301590611420000005959413148822319540_" gradientUnits="userSpaceOnUse" x1="92.79" y1="33.33" x2="96.71" y2="33.33">
		<stop  offset="0" style="stop-color:#FFFFFF"/>
		<stop  offset="1" style="stop-color:#2A41E8"/>
	</linearGradient>
	<path style="fill:url(#SVGID_00000101069369301590611420000005959413148822319540_);" d="M96.7,31c-0.5,0-0.9,0-1.3,0
		c-0.4,0-0.8,0-1.2,0c-0.4,0-0.9,0-1.4,0c0,0.5,0,0.9,0,1.3s0,0.8,0,1.1s0,0.7,0,1.1s0,0.8,0,1.3c0.6,0,1,0,1.4,0c0.4,0,0.8,0,1.2,0
		c0.4,0,0.8,0,1.3,0c0-0.5,0-0.9,0-1.2v-1.1c0-0.3,0-0.7,0-1.1C96.7,31.9,96.7,31.5,96.7,31L96.7,31z"/>
	
		<linearGradient id="SVGID_00000174590800420330921060000013495567531999507096_" gradientUnits="userSpaceOnUse" x1="83.52" y1="43.095" x2="88.38" y2="43.095">
		<stop  offset="0" style="stop-color:#FFFFFF"/>
		<stop  offset="1" style="stop-color:#2A41E8"/>
	</linearGradient>
	<path style="fill:url(#SVGID_00000174590800420330921060000013495567531999507096_);" d="M86,40.7c-0.4,0-0.7,0-1.1,0s-0.8,0-1.3,0
		c0,0.5,0,0.9,0,1.3s0,0.8,0,1.1s0,0.7,0,1.1c0,0.4,0,0.8,0,1.3c0.5,0,0.9,0,1.3,0c0.4,0,0.7,0,1.1,0c0.3,0,0.7,0,1.1,0
		c0.4,0,0.8,0,1.2-0.1c0-0.5,0-0.9,0.1-1.2c0-0.4,0-0.7,0-1.1c0-0.4,0-0.7,0-1.1c0-0.4,0-0.8,0-1.3c-0.5,0-0.9,0-1.2,0
		C86.8,40.7,86.4,40.7,86,40.7L86,40.7z"/>
	
		<linearGradient id="SVGID_00000090979927085766420220000011720040398389865606_" gradientUnits="userSpaceOnUse" x1="73.94" y1="14.645" x2="78.67" y2="14.645">
		<stop  offset="0" style="stop-color:#FFFFFF"/>
		<stop  offset="1" style="stop-color:#2A41E8"/>
	</linearGradient>
	<path style="fill:url(#SVGID_00000090979927085766420220000011720040398389865606_);" d="M76.3,16.6c0.3,0,0.7,0,1.1,0s0.8,0,1.3,0
		c0-0.6,0-1,0-1.4c0-0.4,0-0.8,0-1.2c0-0.4,0-0.8,0-1.3c-0.5,0-0.8,0-1.2,0s-0.7,0-1.1,0s-0.7,0-1.1,0c-0.4,0-0.8,0-1.2,0
		c0,0.5,0,0.9,0,1.3c0,0.4,0,0.8,0,1.2c0,0.4,0,0.9,0,1.4c0.5,0,0.9,0,1.3,0C75.6,16.6,75.9,16.6,76.3,16.6L76.3,16.6z"/>
	
		<linearGradient id="SVGID_00000058581226138142426220000015978958073236760722_" gradientUnits="userSpaceOnUse" x1="73.9055" y1="23.43" x2="78.77" y2="23.43">
		<stop  offset="0" style="stop-color:#FFFFFF"/>
		<stop  offset="1" style="stop-color:#2A41E8"/>
	</linearGradient>
	<path style="fill:url(#SVGID_00000058581226138142426220000015978958073236760722_);" d="M76.3,25.9h1.1c0.4,0,0.8,0,1.3,0
		c0-0.5,0-0.9,0-1.3c0-0.4,0-0.8,0-1.1c0-0.4,0-0.7,0-1.1c0-0.4,0-0.8,0-1.3c-0.5,0-0.9,0-1.3,0s-0.8,0-1.1,0s-0.7,0-1.1,0
		s-0.8,0-1.3,0c0,0.5,0,0.9,0,1.3s0,0.8,0,1.1c0,0.4,0,0.7,0,1.1s0,0.8,0,1.3c0.5,0,0.9,0,1.3,0S76,25.9,76.3,25.9L76.3,25.9z"/>
	
		<linearGradient id="SVGID_00000043421576653969930520000006682858192366230662_" gradientUnits="userSpaceOnUse" x1="74.13" y1="58.935" x2="78.49" y2="58.935">
		<stop  offset="0" style="stop-color:#FFFFFF"/>
		<stop  offset="1" style="stop-color:#2A41E8"/>
	</linearGradient>
	<path style="fill:url(#SVGID_00000043421576653969930520000006682858192366230662_);" d="M76.3,57.5c-0.3,0-0.7,0-1,0
		c-0.4,0-0.7,0-1.2,0c0,0.4,0,0.8,0,1.1s0,0.6,0,0.9s0,0.6,0,0.9c0.4,0,0.8,0,1.1,0s0.6,0,0.9,0s0.6,0,0.9,0s0.7,0,1.1,0
		c0-0.3,0-0.6,0-0.9s0-0.6,0-0.9c0-0.3,0-0.7,0-1.1c-0.4,0-0.8,0-1.2,0S76.6,57.5,76.3,57.5z"/>
	
		<linearGradient id="SVGID_00000152970656210434358790000012620895847037961659_" gradientUnits="userSpaceOnUse" x1="65.55" y1="7.895" x2="70.18" y2="7.895">
		<stop  offset="0" style="stop-color:#FFFFFF"/>
		<stop  offset="1" style="stop-color:#2A41E8"/>
	</linearGradient>
	<path style="fill:url(#SVGID_00000152970656210434358790000012620895847037961659_);" d="M67.7,9.3c0.3,0,0.6,0,1,0
		c0.3,0,0.7,0,1.2,0c0-0.4,0.1-0.8,0.1-1.1c0-0.3,0.1-0.6,0.1-0.9s0.1-0.6,0.1-0.9c-0.4,0-0.8,0-1.1,0c-0.3,0-0.6,0-0.9,0
		c-0.3,0-0.6,0-0.9,0c-0.3,0-0.7,0-1.1,0C66,6.8,66,7.1,65.9,7.4S65.8,8,65.7,8.3S65.6,9,65.6,9.4c0.4,0,0.8,0,1.1,0
		C67,9.4,67.4,9.4,67.7,9.3L67.7,9.3z"/>
	
		<linearGradient id="SVGID_00000073707347704698915480000006692809800107877042_" gradientUnits="userSpaceOnUse" x1="65.52" y1="58.825" x2="70.16" y2="58.825">
		<stop  offset="0" style="stop-color:#FFFFFF"/>
		<stop  offset="1" style="stop-color:#2A41E8"/>
	</linearGradient>
	<path style="fill:url(#SVGID_00000073707347704698915480000006692809800107877042_);" d="M68.1,60.3c0.3,0,0.6,0,0.9,0
		c0.3,0,0.7,0,1.1,0c-0.1-0.3-0.1-0.7-0.1-0.9c0-0.3-0.1-0.6-0.1-0.9c0-0.3-0.1-0.7-0.1-1.1c-0.4,0-0.8,0-1.2,0c-0.3,0-0.7,0-1,0
		c-0.3,0-0.6,0-1,0c-0.3,0-0.7,0-1.1,0c0.1,0.4,0.1,0.8,0.2,1.1c0.1,0.3,0.1,0.6,0.2,0.9c0.1,0.3,0.1,0.6,0.2,1c0.4,0,0.8,0,1.1,0
		C67.5,60.3,67.8,60.3,68.1,60.3L68.1,60.3z"/>
	
		<linearGradient id="SVGID_00000132780529762018015740000017863570810486938512_" gradientUnits="userSpaceOnUse" x1="74.15" y1="7.795" x2="78.51" y2="7.795">
		<stop  offset="0" style="stop-color:#FFFFFF"/>
		<stop  offset="1" style="stop-color:#2A41E8"/>
	</linearGradient>
	<path style="fill:url(#SVGID_00000132780529762018015740000017863570810486938512_);" d="M78.4,6.4c-0.4,0-0.8,0-1.1,0
		c-0.3,0-0.7,0-0.9,0s-0.6,0-0.9,0s-0.7,0-1.1,0c0,0.3,0,0.6,0,0.9c0,0.3,0,0.6,0,0.9s0,0.6,0,1.1c0.4,0,0.8,0,1.2,0s0.7,0,1,0
		s0.7,0,1,0c0.3,0,0.7,0,1.2,0c0-0.4,0-0.8,0-1.1c0-0.3,0-0.6,0-0.9S78.4,6.7,78.4,6.4L78.4,6.4z"/>
	
		<linearGradient id="SVGID_00000051352639830225849210000000022755440815740862_" gradientUnits="userSpaceOnUse" x1="73.94" y1="52.045" x2="78.69" y2="52.045">
		<stop  offset="0" style="stop-color:#FFFFFF"/>
		<stop  offset="1" style="stop-color:#2A41E8"/>
	</linearGradient>
	<path style="fill:url(#SVGID_00000051352639830225849210000000022755440815740862_);" d="M76.3,50.1c-0.4,0-0.7,0-1.1,0
		c-0.4,0-0.8,0-1.3,0c0,0.6,0,1,0,1.4c0,0.4,0,0.8,0,1.2c0,0.4,0,0.8,0,1.3c0.5,0,0.9,0,1.2,0h2.1c0.4,0,0.8,0,1.2,0
		c0-0.5,0-0.9,0-1.3c0-0.4,0-0.8,0-1.2c0-0.4,0-0.9,0-1.4c-0.5,0-0.9,0-1.3,0C77,50.1,76.7,50.1,76.3,50.1L76.3,50.1z"/>
	
		<linearGradient id="SVGID_00000155117527653110744220000000098853365812765568_" gradientUnits="userSpaceOnUse" x1="73.84" y1="33.325" x2="78.79" y2="33.325">
		<stop  offset="0" style="stop-color:#FFFFFF"/>
		<stop  offset="1" style="stop-color:#2A41E8"/>
	</linearGradient>
	<path style="fill:url(#SVGID_00000155117527653110744220000000098853365812765568_);" d="M78.8,32.2c0-0.4,0-0.9,0-1.4
		c-0.5,0-0.9,0-1.3,0s-0.8,0-1.1,0h-1.2c-0.4,0-0.8,0-1.3,0c0,0.5,0,0.9,0,1.4v2.3c0,0.4,0,0.8,0,1.3c0.5,0,0.9,0,1.3,0h2.3
		c0.4,0,0.8,0,1.3,0c0-0.5,0-0.9,0-1.3C78.8,34.5,78.8,32.2,78.8,32.2z"/>
	
		<linearGradient id="SVGID_00000097487416596158192200000012720856584567717003_" gradientUnits="userSpaceOnUse" x1="73.85" y1="43.235" x2="78.73" y2="43.235">
		<stop  offset="0" style="stop-color:#FFFFFF"/>
		<stop  offset="1" style="stop-color:#2A41E8"/>
	</linearGradient>
	<path style="fill:url(#SVGID_00000097487416596158192200000012720856584567717003_);" d="M76.3,40.8c-0.4,0-0.7,0-1.1,0
		s-0.8,0-1.3,0c0,0.5,0,0.9,0,1.3s0,0.8,0,1.1c0,0.4,0,0.7,0,1.1s0,0.8,0,1.3c0.5,0,0.9,0,1.3,0c0.4,0,0.8,0,1.1,0s0.7,0,1.1,0
		s0.8,0,1.3,0c0-0.5,0-0.9,0-1.3c0-0.4,0-0.8,0-1.1c0-0.4,0-0.7,0-1.1s0-0.8,0-1.3c-0.5,0-0.9,0-1.3,0S76.6,40.8,76.3,40.8
		L76.3,40.8z"/>
	
		<linearGradient id="SVGID_00000110446812728682084970000018016240219493932477_" gradientUnits="userSpaceOnUse" x1="82.46" y1="58.845" x2="87.09" y2="58.845">
		<stop  offset="0" style="stop-color:#FFFFFF"/>
		<stop  offset="1" style="stop-color:#2A41E8"/>
	</linearGradient>
	<path style="fill:url(#SVGID_00000110446812728682084970000018016240219493932477_);" d="M85,57.4c-0.3,0-0.7,0-1,0
		c-0.3,0-0.7,0-1.2,0c0,0.4-0.1,0.8-0.1,1.1c0,0.3-0.1,0.6-0.1,0.9c0,0.3-0.1,0.6-0.1,0.9c0.4,0,0.8,0,1.1,0c0.3,0,0.6,0,0.9,0
		c0.3,0,0.6,0,0.9,0c0.3,0,0.7,0,1.1,0c0.1-0.3,0.1-0.7,0.2-1c0.1-0.3,0.1-0.6,0.2-0.9c0.1-0.3,0.1-0.7,0.2-1.1c-0.4,0-0.8,0-1.1,0
		C85.6,57.4,85.3,57.4,85,57.4L85,57.4z"/>
	
		<linearGradient id="SVGID_00000047020883819518890860000001931930990897156233_" gradientUnits="userSpaceOnUse" x1="83.11" y1="51.865" x2="87.93" y2="51.865">
		<stop  offset="0" style="stop-color:#FFFFFF"/>
		<stop  offset="1" style="stop-color:#2A41E8"/>
	</linearGradient>
	<path style="fill:url(#SVGID_00000047020883819518890860000001931930990897156233_);" d="M85.7,49.9c-0.3,0-0.7,0-1.1,0
		c-0.4,0-0.8,0-1.2,0c0,0.6-0.1,1-0.1,1.4s-0.1,0.8-0.1,1.2s-0.1,0.8-0.1,1.3c0.4,0,0.8,0,1.2,0s0.7,0,1,0c0.3,0,0.7,0,1,0
		c0.4,0,0.7,0,1.2,0c0.1-0.5,0.1-1,0.1-1.4s0.1-0.8,0.1-1.2c0-0.4,0.1-0.9,0.1-1.5c-0.4,0-0.8,0-1.2,0.1S86,49.9,85.7,49.9
		L85.7,49.9z"/>
	
		<linearGradient id="SVGID_00000156585900689714181700000003674180332443593660_" gradientUnits="userSpaceOnUse" x1="82.44" y1="7.895" x2="87.08" y2="7.895">
		<stop  offset="0" style="stop-color:#FFFFFF"/>
		<stop  offset="1" style="stop-color:#2A41E8"/>
	</linearGradient>
	<path style="fill:url(#SVGID_00000156585900689714181700000003674180332443593660_);" d="M84.5,6.4c-0.3,0-0.6,0-0.9,0
		c-0.3,0-0.7,0-1.1,0c0.1,0.3,0.1,0.6,0.1,0.9s0.1,0.6,0.1,0.9c0,0.3,0.1,0.6,0.1,1.1c0.4,0,0.8,0,1.2,0c0.3,0,0.7,0,1,0s0.6,0,1,0
		c0.3,0,0.7,0,1.1,0C87,9,87,8.6,86.9,8.3c-0.1-0.3-0.1-0.6-0.2-0.9s-0.1-0.6-0.2-0.9c-0.4,0-0.8,0-1.1,0
		C85.1,6.4,84.8,6.4,84.5,6.4L84.5,6.4z"/>
	
		<linearGradient id="SVGID_00000132070427653326335060000005965708506635763092_" gradientUnits="userSpaceOnUse" x1="64.7" y1="51.85" x2="69.52" y2="51.85">
		<stop  offset="0" style="stop-color:#FFFFFF"/>
		<stop  offset="1" style="stop-color:#2A41E8"/>
	</linearGradient>
	<path style="fill:url(#SVGID_00000132070427653326335060000005965708506635763092_);" d="M67.3,53.9c0.3,0,0.7,0,1,0
		c0.4,0,0.8,0,1.2,0c0-0.5-0.1-0.9-0.1-1.3c0-0.4-0.1-0.8-0.1-1.2c0-0.4-0.1-0.9-0.1-1.4c-0.5,0-0.9,0-1.2,0c-0.4,0-0.7,0-1.1,0
		c-0.3,0-0.7,0-1.1,0c-0.4,0-0.8,0-1.2-0.1c0,0.6,0.1,1,0.1,1.5s0.1,0.8,0.1,1.2s0.1,0.8,0.1,1.4c0.4,0,0.8,0,1.2,0
		C66.6,53.9,66.9,53.9,67.3,53.9z"/>
	
		<linearGradient id="SVGID_00000051376962102693014790000004850887523772242353_" gradientUnits="userSpaceOnUse" x1="83.51" y1="23.56" x2="88.37" y2="23.56">
		<stop  offset="0" style="stop-color:#FFFFFF"/>
		<stop  offset="1" style="stop-color:#2A41E8"/>
	</linearGradient>
	<path style="fill:url(#SVGID_00000051376962102693014790000004850887523772242353_);" d="M85.9,21.2c-0.3,0-0.7,0-1.1,0
		c-0.4,0-0.8,0-1.3,0c0,0.5,0,0.9,0,1.3c0,0.4,0,0.8,0,1.1s0,0.7,0,1.1c0,0.4,0,0.8,0,1.3c0.5,0,0.9,0,1.3,0c0.4,0,0.8,0,1.1,0
		c0.4,0,0.7,0,1.1,0s0.8,0,1.2,0c0-0.5,0-0.9,0-1.3s0-0.8,0-1.1c0-0.4,0-0.7,0-1.1c0-0.4,0-0.8-0.1-1.2c-0.4,0-0.9,0-1.2-0.1
		C86.6,21.2,86.2,21.2,85.9,21.2L85.9,21.2z"/>
	
		<linearGradient id="SVGID_00000068673961389673309750000011284465203107604141_" gradientUnits="userSpaceOnUse" x1="83.09" y1="14.83" x2="87.91" y2="14.83">
		<stop  offset="0" style="stop-color:#FFFFFF"/>
		<stop  offset="1" style="stop-color:#2A41E8"/>
	</linearGradient>
	<path style="fill:url(#SVGID_00000068673961389673309750000011284465203107604141_);" d="M85.3,12.8c-0.3,0-0.7,0-1,0
		c-0.4,0-0.8,0-1.2,0c0,0.5,0.1,0.9,0.1,1.3s0.1,0.8,0.1,1.2c0,0.4,0.1,0.9,0.1,1.4c0.5,0,0.9,0,1.2,0s0.7,0,1.1,0
		c0.3,0,0.7,0,1.1,0c0.4,0,0.8,0,1.2,0.1c0-0.6-0.1-1-0.1-1.4s-0.1-0.8-0.1-1.2c0-0.4-0.1-0.8-0.1-1.4c-0.4,0-0.8,0-1.2-0.1
		C86,12.8,85.7,12.8,85.3,12.8L85.3,12.8z"/>
	
		<linearGradient id="SVGID_00000080193032638332906810000008337418974418288539_" gradientUnits="userSpaceOnUse" x1="49.64" y1="33.33" x2="52.5" y2="33.33">
		<stop  offset="0" style="stop-color:#FFFFFF"/>
		<stop  offset="1" style="stop-color:#2A41E8"/>
	</linearGradient>
	<path style="fill:url(#SVGID_00000080193032638332906810000008337418974418288539_);" d="M51.4,35.5c0.3,0,0.6,0,1.1,0
		c0-0.4,0-0.8,0-1.2c0-0.4,0-0.7,0-1s0-0.7,0-1s0-0.8,0-1.2c-0.4,0-0.8,0-1.1,0c-0.3,0-0.6,0-0.9,0c-0.3,0-0.6,0-0.9,0
		c0,0.4,0,0.8,0,1.1v1.9c0,0.3,0,0.7,0,1.1c0.3,0,0.6,0,0.9,0C50.8,35.5,51.1,35.5,51.4,35.5L51.4,35.5z"/>
	
		<linearGradient id="SVGID_00000146458323898209534370000001533749407985537463_" gradientUnits="userSpaceOnUse" x1="49.72" y1="24.77" x2="52.68" y2="24.77">
		<stop  offset="0" style="stop-color:#FFFFFF"/>
		<stop  offset="1" style="stop-color:#2A41E8"/>
	</linearGradient>
	<path style="fill:url(#SVGID_00000146458323898209534370000001533749407985537463_);" d="M51.5,26.9c0.3,0,0.7-0.1,1.1-0.1
		c0-0.4,0-0.8,0-1.2c0-0.4,0-0.7,0-1c0-0.3,0-0.6,0-1s0-0.7,0-1.1c-0.4,0.1-0.8,0.1-1.1,0.2c-0.3,0.1-0.6,0.1-0.9,0.2
		s-0.6,0.1-0.9,0.2c0,0.4,0,0.8,0,1.1s0,0.6,0,1c0,0.3,0,0.6,0,1c0,0.3,0,0.7,0,1.1c0.3,0,0.6-0.1,0.9-0.1
		C50.9,27,51.2,26.9,51.5,26.9L51.5,26.9z"/>
	
		<linearGradient id="SVGID_00000174559830540188716770000012650259707695841423_" gradientUnits="userSpaceOnUse" x1="55.98" y1="24.015" x2="60.1" y2="24.015">
		<stop  offset="0" style="stop-color:#FFFFFF"/>
		<stop  offset="1" style="stop-color:#2A41E8"/>
	</linearGradient>
	<path style="fill:url(#SVGID_00000174559830540188716770000012650259707695841423_);" d="M58.5,26.3c0.4,0,0.9,0,1.4-0.1
		c0-0.5,0-0.9,0-1.3c0-0.4,0-0.7,0-1.1c0-0.4,0-0.7,0-1.1c0-0.4,0-0.8,0.1-1.2c-0.6,0-1,0.1-1.4,0.1c-0.4,0-0.8,0.1-1.2,0.1
		s-0.8,0.1-1.3,0.1c0,0.4,0,0.8,0,1.2c0,0.4,0,0.7,0,1s0,0.7,0,1c0,0.4,0,0.8,0,1.2c0.5,0,0.9-0.1,1.3-0.1
		C57.7,26.4,58.1,26.3,58.5,26.3L58.5,26.3z"/>
	
		<linearGradient id="SVGID_00000157267360747841949190000010203397599925379215_" gradientUnits="userSpaceOnUse" x1="55.9" y1="33.33" x2="59.83" y2="33.33">
		<stop  offset="0" style="stop-color:#FFFFFF"/>
		<stop  offset="1" style="stop-color:#2A41E8"/>
	</linearGradient>
	<path style="fill:url(#SVGID_00000157267360747841949190000010203397599925379215_);" d="M58.4,35.7c0.4,0,0.9,0,1.4,0
		c0-0.5,0-0.9,0-1.3s0-0.8,0-1.1s0-0.7,0-1.1s0-0.8,0-1.3c-0.5,0-1,0-1.4,0c-0.4,0-0.8,0-1.2,0s-0.8,0-1.3,0c0,0.5,0,0.9,0,1.2
		c0,0.4,0,0.7,0,1.1s0,0.7,0,1.1s0,0.8,0,1.2c0.5,0,0.9,0,1.3,0C57.6,35.7,58,35.7,58.4,35.7L58.4,35.7z"/>
	
		<linearGradient id="SVGID_00000116947631518248734380000012684175325244934821_" gradientUnits="userSpaceOnUse" x1="64.25" y1="43.095" x2="69.11" y2="43.095">
		<stop  offset="0" style="stop-color:#FFFFFF"/>
		<stop  offset="1" style="stop-color:#2A41E8"/>
	</linearGradient>
	<path style="fill:url(#SVGID_00000116947631518248734380000012684175325244934821_);" d="M66.7,45.5c0.3,0,0.7,0,1.1,0
		c0.4,0,0.8,0,1.3,0c0-0.5,0-0.9,0-1.3c0-0.4,0-0.8,0-1.1c0-0.4,0-0.7,0-1.1c0-0.4,0-0.8,0-1.3c-0.5,0-0.9,0-1.3,0
		c-0.4,0-0.8,0-1.1,0c-0.4,0-0.7,0-1.1,0s-0.8,0-1.3,0c0,0.5,0,0.9,0,1.3s0,0.8,0,1.1c0,0.4,0,0.7,0,1.1c0,0.4,0,0.8,0.1,1.2
		c0.5,0,0.9,0,1.2,0.1S66.4,45.5,66.7,45.5L66.7,45.5z"/>
	
		<linearGradient id="SVGID_00000163786227995703590320000013857836766373499527_" gradientUnits="userSpaceOnUse" x1="49.69" y1="41.91" x2="52.67" y2="41.91">
		<stop  offset="0" style="stop-color:#FFFFFF"/>
		<stop  offset="1" style="stop-color:#2A41E8"/>
	</linearGradient>
	<path style="fill:url(#SVGID_00000163786227995703590320000013857836766373499527_);" d="M51.6,44.1c0.3,0.1,0.7,0.1,1.1,0.2
		c0-0.4,0-0.8,0-1.2c0-0.3,0-0.7,0-1c0-0.3,0-0.7,0-1c0-0.3,0-0.7,0-1.2c-0.4,0-0.8-0.1-1.1-0.1c-0.3,0-0.6-0.1-0.9-0.1
		c-0.3,0-0.6-0.1-0.9-0.1c0,0.4,0,0.8,0,1.1c0,0.3,0,0.7,0,1c0,0.3,0,0.6,0,1c0,0.3,0,0.7,0,1.1c0.3,0.1,0.6,0.1,0.9,0.2
		S51.3,44,51.6,44.1L51.6,44.1z"/>
	
		<linearGradient id="SVGID_00000147216175459689359360000018102963663620572078_" gradientUnits="userSpaceOnUse" x1="105.01" y1="40.945" x2="106.06" y2="40.945">
		<stop  offset="0" style="stop-color:#FFFFFF"/>
		<stop  offset="1" style="stop-color:#2A41E8"/>
	</linearGradient>
	<path style="fill:url(#SVGID_00000147216175459689359360000018102963663620572078_);" d="M105.1,39.2c0,0.5,0,1,0,1.4s0,0.8,0,1.2
		c0,0.4,0,0.8,0,1.3c0.4-1.3,0.8-2.7,1.1-4.2c-0.1,0-0.1,0-0.2,0.1C105.7,39,105.4,39.1,105.1,39.2z"/>
	
		<linearGradient id="SVGID_00000110433669377301753750000015124482728572668824_" gradientUnits="userSpaceOnUse" x1="55.97" y1="42.65" x2="60.1" y2="42.65">
		<stop  offset="0" style="stop-color:#FFFFFF"/>
		<stop  offset="1" style="stop-color:#2A41E8"/>
	</linearGradient>
	<path style="fill:url(#SVGID_00000110433669377301753750000015124482728572668824_);" d="M58.7,45c0.4,0,0.9,0.1,1.4,0.1
		c0-0.5,0-0.9-0.1-1.2s0-0.7,0-1.1c0-0.3,0-0.7,0-1.1c0-0.4,0-0.8,0-1.3c-0.5,0-1,0-1.4-0.1c-0.4,0-0.8,0-1.2-0.1
		c-0.4,0-0.8,0-1.3-0.1c0,0.5,0,0.9,0,1.2c0,0.4,0,0.7,0,1s0,0.7,0,1c0,0.4,0,0.8,0,1.2c0.5,0,0.9,0.1,1.3,0.1
		C57.9,44.9,58.2,44.9,58.7,45z"/>
	
		<linearGradient id="SVGID_00000159454592054001042560000006014083373117170363_" gradientUnits="userSpaceOnUse" x1="64.7" y1="14.83" x2="69.52" y2="14.83">
		<stop  offset="0" style="stop-color:#FFFFFF"/>
		<stop  offset="1" style="stop-color:#2A41E8"/>
	</linearGradient>
	<path style="fill:url(#SVGID_00000159454592054001042560000006014083373117170363_);" d="M67,16.8c0.3,0,0.7,0,1.1,0
		c0.4,0,0.8,0,1.2,0c0-0.6,0.1-1,0.1-1.4c0-0.4,0.1-0.8,0.1-1.2c0-0.4,0.1-0.8,0.1-1.3c-0.4,0-0.8,0-1.2,0c-0.4,0-0.7,0-1,0
		c-0.3,0-0.7,0-1,0c-0.4,0-0.7,0-1.2,0.1c-0.1,0.5-0.1,0.9-0.1,1.4c0,0.4-0.1,0.8-0.1,1.2c0,0.4-0.1,0.9-0.1,1.5
		c0.4,0,0.8,0,1.2-0.1C66.3,16.8,66.6,16.8,67,16.8L67,16.8z"/>
	
		<linearGradient id="SVGID_00000061434502775700751690000017783977068273580174_" gradientUnits="userSpaceOnUse" x1="64.25" y1="23.56" x2="69.11" y2="23.56">
		<stop  offset="0" style="stop-color:#FFFFFF"/>
		<stop  offset="1" style="stop-color:#2A41E8"/>
	</linearGradient>
	<path style="fill:url(#SVGID_00000061434502775700751690000017783977068273580174_);" d="M66.6,26c0.4,0,0.7,0,1.1,0
		c0.4,0,0.8,0,1.3,0c0-0.5,0-0.9,0-1.3s0-0.8,0-1.1c0-0.4,0-0.7,0-1.1c0-0.4,0-0.8,0-1.3c-0.5,0-0.9,0-1.3,0c-0.4,0-0.7,0-1.1,0
		s-0.7,0-1.1,0c-0.4,0-0.8,0-1.2,0.1c0,0.5,0,0.9-0.1,1.2s0,0.7,0,1.1c0,0.4,0,0.7,0,1.1c0,0.4,0,0.8,0,1.3c0.5,0,0.9,0,1.2,0
		S66.2,26,66.6,26L66.6,26z"/>
	
		<linearGradient id="SVGID_00000059993919970616634330000012990334979470006953_" gradientUnits="userSpaceOnUse" x1="64.15" y1="33.305" x2="68.94" y2="33.305">
		<stop  offset="0" style="stop-color:#FFFFFF"/>
		<stop  offset="1" style="stop-color:#2A41E8"/>
	</linearGradient>
	<path style="fill:url(#SVGID_00000059993919970616634330000012990334979470006953_);" d="M66.5,35.8c0.4,0,0.7,0,1.1,0s0.8,0,1.3,0
		c0-0.5,0-0.9,0-1.3v-2.3c0-0.4,0-0.8,0-1.3c-0.5,0-0.9,0-1.3,0c-0.4,0-0.8,0-1.1,0s-0.7,0-1.1,0c-0.4,0-0.8,0-1.3,0
		c0,0.5,0,0.9,0,1.3c0,0.4,0,0.8,0,1.1c0,0.4,0,0.7,0,1.1c0,0.4,0,0.8,0,1.3c0.5,0,0.9,0,1.3,0C65.8,35.7,66.2,35.7,66.5,35.8
		L66.5,35.8z"/>
	
		<linearGradient id="SVGID_00000102512071089791205690000013986248402211452828_" gradientUnits="userSpaceOnUse" x1="56.54" y1="51.12" x2="60.98" y2="51.12">
		<stop  offset="0" style="stop-color:#FFFFFF"/>
		<stop  offset="1" style="stop-color:#2A41E8"/>
	</linearGradient>
	<path style="fill:url(#SVGID_00000102512071089791205690000013986248402211452828_);" d="M59.6,53.2c0.4,0.1,0.8,0.1,1.4,0.2
		c-0.1-0.5-0.1-0.9-0.2-1.3c0-0.4-0.1-0.8-0.2-1.2c0-0.4-0.1-0.9-0.2-1.4c-0.5-0.1-1-0.1-1.4-0.2s-0.8-0.1-1.2-0.2
		c-0.4,0-0.8-0.1-1.3-0.2c0.1,0.5,0.2,1,0.2,1.4c0.1,0.4,0.1,0.8,0.2,1.2c0.1,0.4,0.1,0.8,0.2,1.3c0.5,0.1,0.9,0.2,1.3,0.2
		S59.2,53.1,59.6,53.2z"/>
	
		<linearGradient id="SVGID_00000113351137421799065710000016191764168992189594_" gradientUnits="userSpaceOnUse" x1="56.56" y1="15.58" x2="61" y2="15.58">
		<stop  offset="0" style="stop-color:#FFFFFF"/>
		<stop  offset="1" style="stop-color:#2A41E8"/>
	</linearGradient>
	<path style="fill:url(#SVGID_00000113351137421799065710000016191764168992189594_);" d="M59.1,17.5c0.4,0,0.9-0.1,1.4-0.2
		c0.1-0.5,0.1-1,0.2-1.4c0-0.4,0.1-0.8,0.2-1.2c0.1-0.4,0.1-0.8,0.2-1.3c-0.5,0.1-1,0.1-1.4,0.2c-0.4,0.1-0.8,0.1-1.2,0.2
		c-0.4,0.1-0.8,0.1-1.3,0.2c-0.1,0.5-0.2,0.9-0.2,1.3s-0.1,0.8-0.2,1.2c-0.1,0.4-0.1,0.8-0.2,1.4c0.5-0.1,0.9-0.1,1.3-0.2
		C58.3,17.6,58.7,17.5,59.1,17.5L59.1,17.5z"/>
</g>
<path class="st57" d="M35.8,0v43.5c0,7.2-1,10.9-4,14c-3.1,3.4-8,5.2-13.9,5.2c-8.3,0-14.3-3.6-16.6-10.1C0.4,50.1,0.1,47.2,0,41.2
	h8.7c0.1,4.4,0.3,6.4,0.9,8.4c1.3,3.6,4.2,5.5,8.3,5.5c2.9,0,5.4-1.1,6.9-3c1.7-2,2.2-4.4,2.2-8.7V0H35.8z"/>
<g>
	<path class="st57" d="M116.6,1.6h22.6c7.6,0,11.4,0.8,15,3.2c3.9,2.6,6.1,6.8,6.1,11.9c0,5.9-2.6,9.8-8.2,12.7
		c6.9,2.5,10,6.9,10,13.9c0,5.7-2.5,10.6-6.8,13.4c-3.9,2.5-8.3,3.4-17.2,3.4h-21.5C116.6,60.1,116.6,1.6,116.6,1.6z M140.2,26.7
		c4.1,0,6.7-0.7,8.6-2.3c1.9-1.6,3-4,3-6.7s-1.1-5-3-6.6c-1.9-1.6-4.5-2.3-8.6-2.3h-15.7v17.8L140.2,26.7L140.2,26.7z M141.5,52.8
		c7.5,0,12-3.7,12-9.7s-4-9.6-11.1-9.6h-17.9v19.3H141.5z"/>
	<path class="st57" d="M208.6,19.7c-0.9-8.1-5.7-12-14.6-12c-7.8,0-12.8,3.3-12.8,8.4c0,4.3,3.1,6.9,10.5,8.5l9.5,2.1
		c6.9,1.6,10.4,3.1,13.3,5.6c3.1,2.7,4.7,6.7,4.7,11.2c0,11.1-8.9,17.9-23.2,17.9c-15.2,0-24.3-7.7-25.5-21.8h8.7
		c0.9,9.3,7,14.5,17.1,14.5c8.4,0,14.4-4.1,14.4-10c0-4.4-3.2-7.3-9.3-8.8l-13.2-3.2c-10.7-2.5-15.5-7.3-15.5-15.2
		c0-10.3,8.5-16.8,21.9-16.8s20.6,6.2,22.5,19.4H208.6L208.6,19.7z"/>
	<path class="st57" d="M238.5,60.1h-8.3V1.6h20.5c7.8,0,12.3,1.1,16.1,4.2c3.7,3,5.8,7.7,5.8,13.3s-1.8,9.6-5.4,12.7
		c-3.8,3.3-7.9,4.5-15.9,4.5h-12.8L238.5,60.1L238.5,60.1z M251.9,29.5c4.5,0,7.3-0.8,9.4-2.7c2.1-1.8,3.2-4.6,3.2-7.6
		s-1.1-5.7-3.2-7.6c-2.1-1.9-4.9-2.7-9.4-2.7h-13.4v20.6H251.9L251.9,29.5z"/>
	<path class="st57" d="M290.3,33.3v26.9H282V1.6h8.3V26h29.4V1.6h8.3v58.5h-8.3V33.3H290.3z"/>
	<path class="st57" d="M382.9,8.9h-32.7v17.6h29.9v6.8h-29.9v19.5h33.9v7.3h-42.2V1.6h41.1L382.9,8.9L382.9,8.9z"/>
	<path class="st57" d="M402.9,60.1h-8.3V1.6h23.9c7.6,0,11.7,1,15.3,3.9c3.5,2.8,5.4,7.1,5.4,12.4c0,6.7-2.8,11.1-9,14.3
		c4.6,2.1,6.5,5.4,6.9,12.4l0.4,4.9c0.4,5.6,1.1,8.2,2.9,10.6h-10.2c-0.7-2.5-0.9-3.8-1.3-10.6l-0.4-4.3c-0.5-6-3.9-9.2-9.4-9.2h-16
		L402.9,60.1L402.9,60.1z M416.9,29.1c4.5,0,7.5-0.8,9.8-2.5c2.4-1.8,3.9-4.8,3.9-8.2c0-6.1-4.1-9.7-11-9.7h-16.7v20.3H416.9
		L416.9,29.1z"/>
	<path class="st57" d="M492.7,8.9h-32.7v17.6h29.9v6.8h-29.9v19.5h33.9v7.3h-42.2V1.6h41.1L492.7,8.9L492.7,8.9z"/>
</g>
</svg>
